<mxfile host="app.diagrams.net" modified="2022-02-06T19:34:55.282Z" agent="5.0 (Macintosh; Intel Mac OS X 10_15_7) AppleWebKit/537.36 (KHTML, like Gecko) Chrome/97.0.4692.99 Safari/537.36" etag="Q25tM48idy4LufHH_qZP" version="16.5.3" type="github">
  <diagram id="vfZMfHgXv3cNYlbIDImD" name="Page-1">
    <mxGraphModel dx="781" dy="995" grid="1" gridSize="10" guides="1" tooltips="1" connect="1" arrows="1" fold="1" page="1" pageScale="1" pageWidth="850" pageHeight="1100" math="0" shadow="0">
      <root>
        <mxCell id="0" />
        <mxCell id="1" parent="0" />
        <mxCell id="uFw0JLcZFqKqA6wAhPTW-3" value="" style="shape=image;verticalLabelPosition=bottom;labelBackgroundColor=default;verticalAlign=top;aspect=fixed;imageAspect=0;image=https://static.packt-cdn.com/products/9781788474290/graphics/3e4bae8a-d357-42f0-a3d2-93e5863e7990.png;" vertex="1" parent="1">
          <mxGeometry x="120" y="218" width="520" height="57" as="geometry" />
        </mxCell>
        <mxCell id="uFw0JLcZFqKqA6wAhPTW-4" value="" style="shape=image;verticalLabelPosition=bottom;labelBackgroundColor=default;verticalAlign=top;aspect=fixed;imageAspect=0;image=https://static.packt-cdn.com/products/9781788474290/graphics/6e6ed6a6-e1b7-4cd3-b307-889f903145e4.png;" vertex="1" parent="1">
          <mxGeometry x="120" y="275" width="520" height="69" as="geometry" />
        </mxCell>
        <mxCell id="uFw0JLcZFqKqA6wAhPTW-5" value="" style="shape=image;verticalLabelPosition=bottom;labelBackgroundColor=default;verticalAlign=top;aspect=fixed;imageAspect=0;image=https://static.packt-cdn.com/products/9781788474290/graphics/818c91c0-d4e8-4989-a433-4f552ded6eca.png;" vertex="1" parent="1">
          <mxGeometry x="120" y="344" width="520" height="56" as="geometry" />
        </mxCell>
        <mxCell id="uFw0JLcZFqKqA6wAhPTW-6" value="&lt;b&gt;&lt;font style=&quot;font-size: 18px&quot;&gt;*Optional&lt;/font&gt;&lt;/b&gt;" style="text;html=1;strokeColor=none;fillColor=none;align=center;verticalAlign=middle;whiteSpace=wrap;rounded=0;" vertex="1" parent="1">
          <mxGeometry x="670" y="350" width="60" height="30" as="geometry" />
        </mxCell>
        <mxCell id="uFw0JLcZFqKqA6wAhPTW-7" value="" style="shape=image;imageAspect=0;aspect=fixed;verticalLabelPosition=bottom;verticalAlign=top;fontSize=18;image=data:image/png,iVBORw0KGgoAAAANSUhEUgAABAAAAACuCAMAAACfmo88AAAAAXNSR0IArs4c6QAAAARnQU1BAACxjwv8YQUAAAEXUExURePu/d/q+P/kpdzm9Pvgo9ji7/feo/Xdo9Xe6/HaotDa5uzXoerVoM3W4uXSoMnS3eLQn9/NnsbO2t7Nn9vLnsLK1dfIndTHnb/G0dDEnLvCzMm/m7i+yMi+msW8msO6mrO6w8G6mb23mLC2v7i0mKyyuraymKmvtq+tlqarsqKnraenlZ+jqaKllJ2hk5qfpJeboJedkpSbkZKakJOXm5CTl4yVkIiTj4yPkoaSj4OPjomLj3+NjYWHinuKjXmIjIKDhnKEi31/gW2Ai3p7fWt/imZ8iXZ3eGF5iHNzdF11h29vb1lzh1BthU1rhUxqhEdmg0Bigj9hgjpegTNagDJZfy1VfyhSfh1KfBFCegs+eAY6eAA3dwasRJ4AABcOSURBVHja7Z39XxO5FsZxqFvWC4r4Alru4uutWKi66srVuru87AKO5cpqgXby//8d95PXyckk0wFm2gLP85N0Juk5J8l3kpNMnZqCIAiCIAiCIAiCIAiCIAiCIAiCIAiCRq+FpqWlhRJrXmo2m4gvBE20mjHRzur1YSWm14rV/CqOY8QXgi4SAOJ492F+gUe7MQAAQZcIAJ82pD5JBCznLhkKD2sAAIIuBABm0nX7Z06AewAABF1FAExNveSJgGsAAARdSQBMvY/juAkAQNDVBMD0fhzvp1OAuXvNZvPpjSAA3OtFABAu49748PnCtPtZc+k6mg2CKgLA1FqaBbj+clftDWw9FUzY0HsFy/7rBQCQKbMax3E6pO+Zv268V7fpbYmtOJ6Z24rjeP852g2CKgLArTiOX8qn/a61Pfg+C4Ds9eEAyJa5EcfxU7uUrGk5vfHVtAbArR3xAQAAQVUBYGo/jj+LZ/V+HMfvmgv3mmLcL/FR2eTDutlszvmvDwWAr8ynOP6kr1/bj+OHel6wu7p8r8n3Jf68pgCgJgUzaDcIqgoAW3G8NSU3BPbn1HN7Xw9SKwfgvT4EAL4yjywTluN4l4/2uTiON+RS4LmeIfDZf7x2Y/ohJgAQVB0ANuJ4nz+Md6yp+ZoezSkA/NfzAeAtw9OOet/hfRyvKRu2dFbhaRzvXlcAeIUWg6BqAfBaDswbG5/2TQr+ob4tBYD/ej4A/GVexfGfaoUQx/EtlQq8Z1NjVQJgfxotBkEjAQDRQhYA/utDlgDBOm/p6f6fyiprK3JNJga3DCcgCKp6CZBq+t7q5zwA2NeLAoCU2dL7Dp/VYuA1SSk8kiN/K47focEgqGIAfFJJQD4lX2q+M1t/HgBkrw8HgKdMM453plTqb0aZ4MjGBARBlQGA78TJrfgbr/bN7wT4AOC7PgwA3jIzasm/Gscb4oPdDABmBAAeocEgqFoALOiXAebUUN1YezTjywF4rw8BQKDMhszv7+gjhrtxvNEkmhYAWEaDQVC1AODvA/KfBpvhT+h3yzcMFRwA+K/nAyBU5qHY/l8wqb9PvuU+AABBlQOArwB29BUz5V7OAsB/PR8AoTLXdvkaYM3s879O0xAAAASNEAB8ArCqpuXprttqFgD+6/kACJYRY39LTj3U6b/0BaHl1eY9AACCRgAAfi53Z1qtw83Pf06TJODMVPh6PgCCZW7F8c5c+tjn2wGvzZxkR+YGAQAIqhYAC5/Td30/W09rfjZIntXh7+7N5VzPB0C4zJ9xvGH9Esmr2MwGxL+XAAAIqggAL2Wi/f2G3H1rpmuBlyInd0Nu24sByQ/rbtxbmAldpwAgify5vDLP6VGC63x6sMrvvM5B8fkaAABBFQGAaP+RPQZ3Xjdf8VnBq109+sQ7efxETuA6AQDRcl6Z62JzMC29JGD0aWOD7xtuTU8BABBUPQC2nqav26hf3+CfLvHhLIfnrX39Ux7+67kAyCnzzvlB8uvvTcF35sAwAABBpcr+r8GeL9Bl/LXn/Pn7aU2M3GazKffo55obuxuvw9fNM7zpaC63zDJ5/4fr4RpfJnx+rX4/YOqpqgKCoEunl3jZH4KurPhe3y2EAYKuph6qHyKEIOjqaW4XGT4IupJa2Njg2b6tawgFBF093Yp954ggCLoSEmeA9pcQCAi6klpqNvH4hyAIgiAIgiAIgiAIgiAIgiAIgiAIgiAIgiAIgiAImkhFl11XydeA31fOd8f7CIoAAAAAAAAAAAAAAAAAAAAAAAAAAAAAAAAAAAAAAAAAAAAAAAAAAAAAAAAAAAAAAAAAAAAAAAAAAAAAAAAAAAAAAAAAAAAAAAAAAAAAAAAAAAAAAAAAAAAAALhaAJgdMEsnP5VrZP2m+Ir+nfECoP7hO2Psx5ua+KuRhN0cYuvil2PG2HdVkfKveCRGBwDTrP1vT8Ke6c88xtHbqd+nb9CyvT93bbMn3zYfm78e/PXPQS10K+kuIderHUYXFgDrycokAOC3RI+GlXMBoL6n49R/ZvlXPBJjAABjTPbtHAD4jLNvd/0+dYOW7v35ATCwOnu9p4N0BQGgnSx3jJrArlTreaH7O4xt34+i6MURE/bkAWBIRf03/FH24IusqLh/pUTidABQDXr7Q5LTucPG2T3d9Xss/aBsAPSPjVGN5Pt5AVDlMAIAzgeAFmPPjD28Lc8KgNmBcacrOsxFAAB3l7XPBYCM35cDAB/ZpgZc/yMAcGkBUO+l/b+RcIPOCgCrnIzXxQBA1BkyJR0GgIzflwMA/x4ot+q9g3UAQFveYu1Wwg7v6MSPzCE1kpN/fThm7PCJSqqll+iN/K+EsW/zcurNGGunqSZeSmXinAorBEDL7v6/Pq7JFl23vtu2X9rqt85tXu2fDpnuKfqJmY0EvSMNtYhM/49aNQCQ36Y/WfzCWP/Nzz3zmTbOFwh/t/ZV5YbMqqsC78sAwJ2uwhK3RAHANsVp1sUBv4f05YzNvmFE7yzm63gBsJeIlEhHZzT+kNePmekoPGli/qA3Rq3EpNscADRUKk79YVdYJQA6Gbg3kpOvIfs1AHzW1Xus/8QLABkyBwCeSLhDQIV68ciKTPkAiLrcDdoKh0dZAHgC4fXbW5UTMruuCrwvBQAttQbo8n+KTkJMoc3aSNhmzbgesNkzjOidBX0dLwDYwXx0lzvMObV4xOSIYOyt8IYHoyU6RP03taK2b5wd8OKLPXuNLIM2OxBPh1+OdCmrwioB0DVLPWshYH23a3/WXVKQ/dh8XKNT2zRkdgf3RcIdArJcvccO74vnaX4szgGATbsV5mVa38wKjHHZQPj99lWVF9TyvS8FALNyDTA7OKi1dCtZppBmVQ6lEfPanB1G9M6ivo4ZACv2g1MvmyXY5X1kTNEb1XpTtjEBgF6Jzg54VbTCagHQzgLA+m5qvwGA1zo+52XpiYIUAGR7UTrvi0RmCJBQe0wtBwCdFAC6FTpZAPgC4ffbV1VeUMv3vhQAmObjkzhuBDXFblY+/iPbdb/N4WEk7yzq63gBQOEkW0tf132bvb3pz5ETz2wApLk4EQVa4agB4Ptue6WcY92Lv8RMl6/uUgDIkNEO7ouEOwTEX2mKrJWfYy8BAKYVbG+dHB1NGfj89lWVF9TyvS8FADIufAUgv9sxxWrWttlI0a77bc4MI3pnYV/HC4DUtLv/+fVrwuzEuZndMsb20nWhuZH2JRsAaccQsXETZqNdArjfnTpqkoB51vH9cDWjW7FCRkp5I+EOgYOac4Ykd2ZYwhLAOFTveQHgBsLvt6+qvKCW7305AGgkIq0nBrv4FzElbVb+waZVLmhzZhjROwv7OhEAaBxpW7PNq4+GiWWRfSMdMX4AqDXVqABAkoC3b2YBQBwtBABnausFgDcS4wGAfFYPB4AnEH6/CwCA1DWpAKj3xMO/HQ0FwF6inL06AGjxs99/v3n8S+Ln+4OPxzLjS26cwBkAWcer5YezFrUczQOA/Yd4qJY2A1g5S4ufYhvQZPXyAOALRCYIwclEXlDL974cAEQd1hYrAAOAFbJ/bADwzMpgkb48bBj5FkQTfw5AWF7viV0P9+wMcaHelesa+0a98rUHiD8HMCoA2AeBdAKSDtRNTxLQZ529mBB+BgAQjgS9Iw11u1IAyDnQsByANxB+v/05gHBQy/e+JAA0koObfAVgcgBtLwBOfhIeRdm+XGAYtf1dcdIBYLp+l/mat23udW4svgswKgDYR4G7LDO8HfvzAJBWFFoCyCB2WHgXwL5Dl+uwk/nAkYUyAKDy88N2AbyB8Pvt3wUIB7V870sCQL3X/yiCo3cBbFMo16Xnqetem7MTaXpnUV8nYwZwMK8OLqxkd7j667UoesF7lnOj2f1WSbK2ew7gxRE5jz8CAER7jH27H0V192UgTTNqf04OoMsrqskXbDZTorfM+3ZiY/z3vEjYd1jlxLmKvSGv2pwJAHf1y0Bk8/535xxAO/IHwu+3r6q8oJbvfUkA4J6pQz9ykmSb4kzsOmn+M2hzFgD0zqK+TkoOgOttL/vANicB5ezJvlEfD5PVdUX61H8ScHQASI+lybdZs8vV1P5cAKSvxcr0p/LP5E3V9/x3oA/WuJGgd6T51oQVORV51teBt+3XgdV3/W3lAIwb2UD4/fZVlRfU8r0vCwAt9R6wMoaY4gBgdpCepgjZ7MulkzsL+joRuwAv/mGsvz3vX7Kvix/YeFbL3KhOwG/LmU79CxOrBO+7AKMDQHRbvLvg/iCI+m5i/5BdgMW/uON95Z7yL9055XOMwyfkXQASCXpHWk6eENe1lgqAH+JNaHKAP6HvAhjjPIHw++2rKi+o5XtfFgDkejQ1xjbFTe205DaX/S6Aa7NvN53eWczX0QPgQgk/CXZ+30tMSJeb2x4RAC5fdwAAAIAC0hn91vk3okusCgAAAACAkQCgI17ZidaTzPnIcVYFAAAAAMBIAEDyt+dTiVUBAAAAADCaHEBd5G+/PyvBnhKrAgAAAABgJAC4HN5j+AMAAAAAAAAAAAAAAAAAAAAAAAAAAAAAAAAAAAAAAAAAAAAAAAAAAAAAAAAAAAAAAAAAAAAAAHAlAABBEARBEARBEARBEARBEARBEARBEARBEARBEARBEARBEARBEARBEARBEARBEARBEARB0AQJvw2DXwSC8JNgAAAAAAEAAAAAAAEAAAAAAAEAAAAAAAEAAAAAAAEAAAAAAAEAAAAAAAEAAAAAAAEAAAAAAAEAAAAAAAEAAAAAAAEAAAAAAF1WAMwOmFT/2xP/HfWbwbIn3zYfm78e/PXPQS10a73HVrJf3b8zegAYh9mP7fm8G4XfHhtPb3Y4giUCoP7hO/fpTW2kZkWN5OSnArE5XdRP0ZinagvaC+3C1I2hfrpOMTakeMG+NU4AMMa843c9Wckraxyv9wIVTCwAGGPt8H3S7zIAkBPB8gDwW6JBvjJKs04PgCJRv+wACPatsQBAWXH7Q+IbwL6Ra5U9NlcbyfeLAgBlye0vLGxAnt+nfP6XUtOQdu4wtn0/iqIXR6zgt5Xk4NCRU2nUxw2As43gEkJfAQC4jx42DwHAR7apu2D/4wUDADdq83IAoMXYM/NtxR5G4wJAqVEHAMoEQNTx9J0hAPj3QBWp9w7WLxoAolbY4gsFgHovRXcjKfZ1YwNAmVEHAEoFgG6lxS/HjDGRFOyYRZv1oV22q3xpsbZu2PqHYysbtfglYf03PyufxbX+H7VJAYBoVds17kfCDr8qv7WN3Av2bT41mzvL1906pWXX0UhO/sX9PCQRFK6zUKr1XABo2eT+9XHNuGEmZbyZiMlpw7rNxUxzqUruuBGyPecDY1376gtXIOpp3db3h42yqrMv0S4UbAO3F4YBQHq53WLUTy8AdB3SV8cAy4eO07dsh5xSwT5TDQCirgh+Ryc2/rCaxP7QLttS87ku/6fobQ2VjpL1tuRfh0ci9ItH1rVJmQEQ11psL2Hs4HfaSMqL/ooNgP9ZSTdSRyPpHzMauLZIkg5LgZ0VAJ3MM1W58XNPhnh2IMacZbJpWNpcDbu5VCU1N0K2543k5Gvqlydcgaibuu3vDxhFqiOXSBcKt4HTC8MAIFWQFqN+FgKAbYDtgwMA4hAtFe4zlQFgUxjEn9CLR8IkNV2hH1plZ+UaYHZwUJPDaXYg8PXLkXgq8b/mozofTyuissP74ikjr01EDoC61mLsYD66q/2WNs4O+IeLPeWguo8XW5Ru0jp4k74111RNLdZ/EkX13065YVQIAN3Mqlq70VHdj99ATTYOepprTzaXriQTIeq55asnXIGo67rp94eMsqNPL9ljONgGtBeGAeA6arUY9bMQAGhgLB/cvmU5REuF+0xFAOjwptGPE7mYVMbSD62ypnu3zfPUhKGd/tURoe+kM9L2+AHw4Eg9dmzXWqqPkEZSXsiiBgBt2027Dp1NbSQWQrvh1FcJAGhnAaCel8KwrnLNMtk0bLi5dCWZCFnVUF894QpEPa3b/v48o2QV9BLNYAXbgLrl3ZoUd9AqSItRPzMVtH0AsAoQH3x9yxvOcJ+pEgC0zZyEhd2osqws0+3fkQBI81E8muYvUS6tS9w6/nMA/axrejlNGokMMA0ARWUy/TazvzuZCHYYe3tzhADQbshxKZ8ntsnSrLzmoqmF7KcdOYO3ffWEKxB1VQv9fq9RpDrnkq8LedqAuhUGAK2CtBj1sxAA7AIkJHbfchyipcJ9psolANfd//z6NWEOANIP7bLiGcNXAHpUp4P85Cfzl6jGOTgxbgB8f2OCm7pmMpm0kVayAFDj3oyHtA7aE9JpLWNs70k1AMguAZR5Yg0gEzXUZGlWXnORdH02QrIa6qsnXIGoq1ro93uNItU597tdKNAG1K38XYC0CtJi1M9iScCfPI8+t285DrnhDPWZagCgaNQ40o1lAYB8aJcVz5iW7GYEANyXyQSA0z2Jaz4AuA8OAgC1erTr8AJArqzl+rnSJODtmxExTzxDVyLXZHesZZvLKuCLkKzGA4BshD1RzwBguFFR9n7ShcJtUBgAtJfbLXY+AFD3/X3LE85wn6lqG1Aneb7//ebxL3YOgH5I7ufPmK4ZE0NmACsTdQ5AL5ct1842A6B1+AHA178fj8+6DZDbzvbCVNLAmMf5rBK1Z54B+CN02hnAEACcewaQ0wZFAZDt5abFxjIDCPeZqg4CyWXYZiYJ6HxIyjaSg5t8BVAoB9CeOAA4rvkAYFZwYqrtyQE4dQQBwOvt5hyXKuMgkEwmpbP3Dj+gsUkWK8VzAKKSTIRoDiADABqufACcJgfAqwvnAPLaIJQDcADg7+WyxU4BAF8nICHJzQFkv0ZYQIJXq/IosPnqrrUEcD4kZeu9/ke52VpgF+BkPj+DM3oAOK55ATBsF8CpwwcA09CtCgBgHwXuMjJBiWYHm+qw1hl2AehTWkeI7gJkAZC7C+AkKUrbBchrg9AugAMAWgVtsUIAkH92PJ2g+C4AnTcYC6oHwF31MlC9x3cs5ZEd03GdD2nZrjrEQM4BvPCdA5gdyI3NPZb2lgmYAdiuWQBoZ88BpHvPfLZoNmydOjIAkMer+uu1KHqRVLAEiKI9xr7dj6K6fhnIwky3fyzNISanDoabK31K0wjZ1fgAQMI1BAD0+0NG2dGnl+wZQLANCp4DcKogLVYAAPRbMum81Ae3b1kOudgI9ZlqXgfeNis+rrfSzC5jbNP9kASgpd4D9p4EVH/9bc4TZY6NTUIOIHWtlR5V4H7T01rW6bMWP1ZmPqN1OJ1F1mROdR3UKgBAeoat/8yZZ7SYmolTk5VZec1l5wDsCNnV+ABAwjUEAM735xlF/sieBMxrA9oLc3MAaRWkxQoAQLfBf7M5AMcHX9/yhTPcZyoAwA/xOinXi38Y62/Pq9xy/Yv4fvohCYCcvFgPT3KOu76XfRdge36CkoDUtTR7Jvwmh9u36bsAP3PPVH6W1OGmcmUEo3Xxix3PzjT+h/8gyG1xbFyH3QKAcdgxWZsVfnXDVOJGyKrGCwA7XMMAQL8/bJSpLvguQG4b7BV6F8Dp5VaLFQGAeBn78MmsDwDEB9q3nHcBSKlQn8FPgo3b2zMu5as5CDSEeAe105rs28kbl+dQpQeBAIDLDoCOXrQVMLlrVgvhNxYAAAAAALg4AFg089QCJndEfi9aT3JeXAAAAAAA4KIAoGsdIilgcpFMJQAAAAAAFwUAHesYaRGT6yLr9P3ZBHkOAQATCIAxtziGAAAAAAAAEAAAAAAAEAAAAAAAEAAAAAAAEAAAAAAAEAAAAAAAEAAAAAAAEAAAAAAA0CUHAARBEARBEARBEARBEARBEARBEARBEARBEARBEARBEARBEARBEARBE63/AyONBSxmA6xAAAAAAElFTkSuQmCC;" vertex="1" parent="1">
          <mxGeometry x="120" y="130" width="520" height="88" as="geometry" />
        </mxCell>
      </root>
    </mxGraphModel>
  </diagram>
</mxfile>
